HIERARCHY
ROOT Hips
{
	OFFSET 0.00000 0.00000 0.00000
	CHANNELS 6 Xposition Yposition Zposition Zrotation Yrotation Xrotation 
	JOINT LHipJoint
	{
		OFFSET 0 0 0
		CHANNELS 3 Zrotation Yrotation Xrotation
		JOINT LeftUpLeg
		{
			OFFSET 1.85590 -1.73949 0.84976
			CHANNELS 3 Zrotation Yrotation Xrotation
			JOINT LeftLeg
			{
				OFFSET 2.36836 -6.50702 0.00000
				CHANNELS 3 Zrotation Yrotation Xrotation
				JOINT LeftFoot
				{
					OFFSET 2.53268 -6.95849 0.00000
					CHANNELS 3 Zrotation Yrotation Xrotation
					JOINT LeftToeBase
					{
						OFFSET 0.15935 -0.43781 1.94506
						CHANNELS 3 Zrotation Yrotation Xrotation
						End Site
						{
							OFFSET 0.00000 -0.00000 1.00661
						}
					}
				}
			}
		}
	}
	JOINT RHipJoint
	{
		OFFSET 0 0 0
		CHANNELS 3 Zrotation Yrotation Xrotation
		JOINT RightUpLeg
		{
			OFFSET -1.68297 -1.73949 0.84976
			CHANNELS 3 Zrotation Yrotation Xrotation
			JOINT RightLeg
			{
				OFFSET -2.44709 -6.72334 0.00000
				CHANNELS 3 Zrotation Yrotation Xrotation
				JOINT RightFoot
				{
					OFFSET -2.43843 -6.69953 0.00000
					CHANNELS 3 Zrotation Yrotation Xrotation
					JOINT RightToeBase
					{
						OFFSET -0.20854 -0.57295 2.02172
						CHANNELS 3 Zrotation Yrotation Xrotation
						End Site
						{
							OFFSET -0.00000 -0.00000 1.05594
						}
					}
				}
			}
		}
	}
	JOINT LowerBack
	{
		OFFSET 0 0 0
		CHANNELS 3 Zrotation Yrotation Xrotation
		JOINT Spine
		{
			OFFSET -0.01560 2.23971 -0.03712
			CHANNELS 3 Zrotation Yrotation Xrotation
			JOINT Spine1
			{
				OFFSET 0.05490 2.19225 -0.19086
				CHANNELS 3 Zrotation Yrotation Xrotation
				JOINT Neck
				{
					OFFSET 0 0 0
					CHANNELS 3 Zrotation Yrotation Xrotation
					JOINT Neck1
					{
						OFFSET -0.12403 1.43168 0.27585
						CHANNELS 3 Zrotation Yrotation Xrotation
						JOINT Head
						{
							OFFSET 0.17855 1.46173 -0.32578
							CHANNELS 3 Zrotation Yrotation Xrotation
							End Site
							{
								OFFSET 0.07217 1.51590 -0.14537
							}
						}
					}
				}
				JOINT LeftShoulder
				{
					OFFSET 0 0 0
					CHANNELS 3 Zrotation Yrotation Xrotation
					JOINT LeftArm
					{
						OFFSET 3.27650 0.85634 0.05396
						CHANNELS 3 Zrotation Yrotation Xrotation
						JOINT LeftForeArm
						{
							OFFSET 4.96755 -0.00000 0.00000
							CHANNELS 3 Zrotation Yrotation Xrotation
							JOINT LeftHand
							{
								OFFSET 3.35751 -0.00000 0.00000
								CHANNELS 3 Zrotation Yrotation Xrotation
								JOINT LeftFingerBase
								{
									OFFSET 0 0 0
									CHANNELS 3 Zrotation Yrotation Xrotation
									JOINT LeftHandIndex1
									{
										OFFSET 0.79697 -0.00000 0.00000
										CHANNELS 3 Zrotation Yrotation Xrotation
										End Site
										{
											OFFSET 0.64254 -0.00000 0.00000
										}
									}
								}
								JOINT LThumb
								{
									OFFSET 0 0 0
									CHANNELS 3 Zrotation Yrotation Xrotation
									End Site
									{
										OFFSET 0.65235 -0.00000 0.65235
									}
								}
							}
						}
					}
				}
				JOINT RightShoulder
				{
					OFFSET 0 0 0
					CHANNELS 3 Zrotation Yrotation Xrotation
					JOINT RightArm
					{
						OFFSET -3.24434 1.02034 0.34688
						CHANNELS 3 Zrotation Yrotation Xrotation
						JOINT RightForeArm
						{
							OFFSET -5.21859 -0.00000 -0.00000
							CHANNELS 3 Zrotation Yrotation Xrotation
							JOINT RightHand
							{
								OFFSET -3.36504 -0.00000 0.00000
								CHANNELS 3 Zrotation Yrotation Xrotation
								JOINT RightFingerBase
								{
									OFFSET 0 0 0
									CHANNELS 3 Zrotation Yrotation Xrotation
									JOINT RightHandIndex1
									{
										OFFSET -0.62044 -0.00000 0.00000
										CHANNELS 3 Zrotation Yrotation Xrotation
										End Site
										{
											OFFSET -0.50022 -0.00000 0.00000
										}
									}
								}
								JOINT RThumb
								{
									OFFSET 0 0 0
									CHANNELS 3 Zrotation Yrotation Xrotation
									End Site
									{
										OFFSET -0.50786 -0.00000 0.50786
									}
								}
							}
						}
					}
				}
			}
		}
	}
}
MOTION
Frames: 15
Frame Time: .0083333
8.8721 15.7511 -31.7081 0 0 0 0 0 0 -21 0 0 0 0 0 0 0 0 0 0 0 0 0 0 21 0 0 0 0 0 0 0 0 0 0 0 0 0 0 0 0 0 0 0 0 0 0 -16 0 0 21 0 0 11 0 0 0 -8 0 0 0 0 0 0 0 0 0 0 0 0 0 0 0 0 0 0 0 0 8 0 0 0 0 0 0 0 0 0 0 0 0 0 0 0 0 0
8.8721 15.7511 -31.7081 3.7012 4.9122 5.5217 0.0000 0.0000 0.0000 -21.1091 17.2139 20.1408 0.0000 -0.0000 -0.0000 -0.0990 -6.7045 -1.5271 1.3585 -7.3777 -20.8392 0.0000 0.0000 0.0000 13.2560 12.8982 -36.9818 -2.5050 -9.8470 28.4826 -0.0436 1.5354 -3.7106 -1.2054 6.9653 -19.6127 -6.6830 -4.7070 -6.3678 2.0686 -5.8712 -0.6430 5.2967 -3.0469 3.7868 -11.0665 -2.2708 -24.0759 11.8592 -2.4818 24.0856 6.0089 -0.5637 12.2401 -0.0000 -0.0000 0.0000 -81.2265 -27.8636 42.9548 28.8308 -39.8699 -10.6521 -0.0000 0.0000 -17.0419 22.1900 -26.9772 -10.4830 -7.1250 0.0000 -0.0000 -4.7048 1.2657 4.6154 -0.0000 -0.0000 0.0000 80.1483 -15.5148 20.5834 -9.5436 16.0225 -1.3462 0.0000 -0.0000 -1.7088 -30.2032 -16.3950 9.3303 7.1250 -0.0000 -0.0000 -2.3739 -48.7658 0.2206
8.8482 15.7496 -31.4727 2.9670 4.9005 5.4483 0.0000 0.0000 0.0000 -19.8956 17.3922 20.9007 0.0000 0.0000 0.0000 -0.0662 -4.6771 0.5881 1.1289 -6.7484 -18.9720 0.0000 0.0000 0.0000 14.2768 13.0139 -36.6217 -2.6367 -10.0823 29.2438 -0.0174 1.0964 -2.3527 -1.0129 6.4032 -17.9590 -6.2868 -4.8082 -5.8497 2.5940 -6.0908 -1.1548 5.6652 -3.1195 3.0110 -11.4659 -2.0109 -24.2118 12.1627 -2.0853 24.8749 6.3190 -0.3926 12.5270 -0.0000 0.0000 0.0000 -81.9779 -25.7306 42.2848 29.5535 -40.5076 -11.1185 -0.0000 0.0000 -16.3341 22.2369 -27.2347 -10.5976 -7.1250 0.0000 -0.0000 -4.7085 0.9898 4.6422 -0.0000 0.0000 0.0000 79.6308 -15.9222 20.0558 -9.4159 15.8207 -1.3112 0.0000 -0.0000 -1.2072 -31.0502 -17.4358 10.2260 7.1250 -0.0000 -0.0000 -3.1007 -50.0871 0.3892
8.8317 15.7527 -31.2268 2.6928 5.0021 5.3687 0.0000 0.0000 0.0000 -19.2542 17.4657 21.6749 0.0000 0.0000 0.0000 -0.0060 -2.2738 2.7583 0.7990 -5.7053 -15.9318 0.0000 0.0000 0.0000 15.0936 12.3688 -36.3526 -2.8042 -10.3711 30.1871 -0.0045 1.4924 -1.4888 -0.9402 6.1761 -17.2961 -6.1303 -4.9385 -5.8385 2.8336 -6.2838 -1.3087 5.8148 -3.2084 2.8835 -11.7133 -1.9961 -24.3659 12.1618 -1.9649 25.1163 6.4013 -0.3641 12.6379 0.0000 -0.0000 0.0000 -82.4149 -24.1025 41.9047 30.1437 -41.0162 -11.5038 -0.0000 0.0000 -15.8981 22.2556 -27.4621 -10.6871 -7.1250 0.0000 -0.0000 -4.7257 0.7505 4.6794 0.0000 -0.0000 0.0000 79.3603 -15.7770 19.5445 -9.2365 15.5366 -1.2627 0.0000 -0.0000 -0.9449 -28.4929 -19.4674 10.2538 7.1250 -0.0000 -0.0000 -0.1819 -51.8893 0.0309
8.8141 15.7664 -30.9831 2.2600 4.9704 5.2919 0.0000 0.0000 0.0000 -18.5472 17.6790 22.3426 0.0000 -0.0000 -0.0000 0.0747 0.2820 5.0685 0.7391 -5.4920 -15.3174 0.0000 0.0000 0.0000 16.1125 12.0008 -35.9824 -2.9543 -10.6207 31.0111 -0.0013 1.8022 -1.3777 -0.8754 5.9652 -16.6835 -5.6581 -4.9047 -6.0920 2.9394 -6.2570 -1.2693 5.6418 -3.1959 3.0240 -11.8672 -2.0836 -24.5686 12.1465 -2.0104 25.2528 6.4281 -0.3997 12.7420 -0.0000 -0.0000 0.0000 -82.0658 -23.3667 43.0552 30.3680 -41.2068 -11.6513 -0.0000 0.0000 -16.8814 22.5610 -27.3544 -10.8078 -7.1250 0.0000 -0.0000 -4.5308 0.8021 4.4811 -0.0000 -0.0000 0.0000 79.5156 -15.2866 18.0237 -8.9553 15.0891 -1.1884 0.0000 0.0000 0.6231 -29.9409 -19.3250 10.7914 7.1250 -0.0000 -0.0000 -1.7010 -52.0048 0.2934
8.7964 15.7773 -30.7435 1.6396 4.9201 5.1209 0.0000 0.0000 0.0000 -18.2437 16.6158 18.9405 0.1862 2.7794 7.6653 0.0653 0.5991 4.6519 1.1525 -6.8161 -19.1718 0.0000 0.0000 0.0000 17.2978 11.7636 -35.4629 -3.0967 -10.8499 31.7753 0.0001 2.0711 -1.4411 -0.7004 5.3493 -14.9076 -5.0771 -4.9856 -6.0582 3.2047 -6.4117 -1.3334 5.5830 -3.2653 2.9284 -12.0006 -1.8802 -24.7220 12.2532 -1.6980 25.5546 6.5723 -0.2620 12.8470 -0.0000 0.0000 0.0000 -82.0200 -22.3343 43.3582 30.5178 -41.3331 -11.7501 -0.0000 0.0000 -17.0946 22.6410 -27.3741 -10.8564 -7.1250 0.0000 -0.0000 -4.4858 0.7659 4.4391 -0.0000 0.0000 0.0000 79.4301 -14.8816 16.9622 -8.6994 14.6801 -1.1227 0.0000 0.0000 2.3778 -27.6695 -19.1276 9.7488 7.1250 -0.0000 -0.0000 0.5928 -51.3643 -0.0929
8.7841 15.7942 -30.5090 0.9447 4.8795 4.7454 0.0000 0.0000 0.0000 -17.6137 15.6674 16.0878 0.6744 5.2514 14.6270 0.0625 1.1047 4.4649 1.7114 -8.2370 -23.4364 0.0000 0.0000 0.0000 18.5693 11.3554 -34.5820 -3.2033 -11.0171 32.3377 0.0064 2.6087 -1.3763 -0.4085 4.1029 -11.3662 -4.4952 -5.0416 -5.6443 3.5909 -6.5483 -1.4371 5.6878 -3.3214 2.5901 -12.2612 -1.7660 -24.7485 12.2296 -1.4300 25.7697 6.6689 -0.1766 12.8980 -0.0000 -0.0000 0.0000 -82.6339 -20.9401 42.9800 30.6313 -41.4284 -11.8251 -0.0000 0.0000 -16.2952 22.5136 -27.5545 -10.8542 -7.1250 0.0000 -0.0000 -4.5843 0.6040 4.5504 -0.0000 -0.0000 0.0000 79.1036 -14.6666 16.4760 -8.5060 14.3697 -1.0742 0.0000 0.0000 3.1342 -26.7340 -18.9293 9.2800 7.1250 -0.0000 -0.0000 1.4985 -50.9804 -0.2208
8.7695 15.8202 -30.2798 0.4179 4.7450 4.4355 0.0000 0.0000 0.0000 -16.8563 15.6869 13.8285 1.2290 7.0308 19.8067 0.0811 1.8903 5.0545 1.9915 -8.8484 -25.3224 0.0000 0.0000 0.0000 19.5625 11.2242 -33.5767 -3.2855 -11.1435 32.7653 0.0085 3.1408 -1.7085 -0.2373 3.1350 -8.6549 -4.0219 -4.9211 -5.3958 3.8009 -6.4269 -1.4371 5.6772 -3.2546 2.4081 -12.3866 -1.9108 -24.8617 12.0243 -1.5160 25.8669 6.6009 -0.2552 12.9741 -0.0000 -0.0000 0.0000 -83.0529 -19.6484 43.2783 30.7314 -41.5121 -11.8914 -0.0000 0.0000 -15.7620 22.5248 -27.8448 -10.9628 -7.1250 0.0000 -0.0000 -4.6149 0.3012 4.6056 -0.0000 -0.0000 0.0000 79.0688 -14.3640 15.8377 -8.4098 14.2149 -1.0505 0.0000 0.0000 3.3257 -27.3657 -20.1410 10.1053 7.1250 -0.0000 -0.0000 1.1181 -52.4158 -0.2041
8.7494 15.8511 -30.0481 0.0984 4.7111 4.3654 0.0000 0.0000 0.0000 -16.4235 15.3268 11.6322 1.8738 8.5981 24.5460 0.1110 3.6525 6.0695 1.7301 -8.2798 -23.5671 0.0000 0.0000 0.0000 20.2053 11.3715 -32.5981 -3.3326 -11.2149 33.0082 -0.0059 3.3167 -2.6108 -0.2064 2.9255 -8.0713 -3.7935 -4.8752 -5.3533 3.9012 -6.3799 -1.5404 5.6680 -3.2244 2.2581 -12.0486 -1.8487 -24.9973 11.8301 -1.5091 26.2001 6.4880 -0.2479 13.1319 0.0000 -0.0000 0.0000 -83.2810 -18.1609 43.5493 30.8159 -41.5826 -11.9475 -0.0000 0.0000 -15.2159 22.5507 -28.3067 -11.1395 -7.1250 0.0000 -0.0000 -4.6598 -0.1820 4.6901 0.0000 -0.0000 0.0000 79.1866 -14.1301 15.2413 -8.3799 14.1667 -1.0431 0.0000 0.0000 3.8739 -28.9322 -19.5155 10.4622 7.1250 -0.0000 -0.0000 -0.6249 -52.0250 0.1081
8.7309 15.8831 -29.8182 -0.3508 4.8916 4.2570 0.0000 0.0000 0.0000 -15.8259 14.7095 9.5824 2.6102 10.0356 29.0920 0.1589 5.2861 7.4804 1.0818 -6.6109 -18.5677 0.0000 0.0000 0.0000 20.9870 11.3114 -31.4914 -3.3379 -11.2229 33.0353 -0.0289 3.3658 -3.5848 -0.2187 3.0102 -8.3072 -3.4850 -4.9213 -5.1987 4.0977 -6.4637 -1.6599 5.7120 -3.2589 2.0482 -11.8058 -1.7537 -24.7415 11.5076 -1.3960 26.1293 6.3191 -0.2200 13.0286 -0.0000 0.0000 0.0000 -83.6318 -16.9063 43.7836 30.6449 -41.4398 -11.8341 -0.0000 0.0000 -14.7370 22.4917 -28.4229 -11.1487 -7.1250 0.0000 -0.0000 -4.7098 -0.2901 4.7497 -0.0000 0.0000 0.0000 79.2243 -13.8283 14.3574 -8.2702 13.9899 -1.0165 0.0000 0.0000 4.6002 -29.8835 -17.6197 9.8675 7.1250 -0.0000 -0.0000 -1.9005 -50.0881 0.2384
8.7118 15.9114 -29.5996 -1.1017 5.1227 4.1754 0.0000 0.0000 0.0000 -14.8741 14.0809 7.4618 3.4153 11.3387 33.4310 0.2192 6.2460 8.7982 0.7456 -5.5157 -15.3855 0.0000 0.0000 0.0000 22.1514 10.9917 -30.4832 -3.3121 -11.1839 32.9025 -0.0465 3.6264 -4.2907 -0.2679 3.3296 -9.1978 -2.7698 -4.9097 -5.1389 4.3368 -6.4896 -1.6607 5.5650 -3.2679 1.9671 -11.8886 -1.8703 -24.5959 11.2469 -1.4435 25.7625 6.1906 -0.2801 12.8567 0.0000 0.0000 0.0000 -83.9312 -16.0442 44.2601 30.2423 -41.1001 -11.5685 -0.0000 0.0000 -14.4558 22.4247 -28.1326 -11.0111 -7.1250 0.0000 -0.0000 -4.7112 0.0234 4.7253 0.0000 0.0000 0.0000 79.3362 -13.3064 13.4264 -8.1885 13.8580 -0.9968 0.0000 0.0000 4.8920 -30.3401 -17.7035 10.0920 7.1250 -0.0000 -0.0000 -2.3499 -50.2628 0.3050
8.6893 15.9406 -29.3879 -1.8079 5.3566 4.1322 0.0000 0.0000 0.0000 -14.0050 13.3741 5.2449 4.2824 12.5270 37.6228 0.2730 7.5528 9.9917 0.6679 -5.2262 -14.5549 0.0000 0.0000 0.0000 23.2785 10.5999 -29.4846 -3.2521 -11.0924 32.5923 -0.0657 3.9921 -4.9882 -0.2984 3.5127 -9.7095 -2.0925 -4.8467 -5.0435 4.4731 -6.4398 -1.7094 5.3446 -3.2365 1.7996 -11.9281 -1.9295 -24.7165 11.5970 -1.6108 25.8078 6.3194 -0.3093 12.9281 -0.0000 0.0000 0.0000 -84.0714 -14.9205 44.8104 29.9070 -40.8136 -11.3488 -0.0000 0.0000 -14.1264 22.3356 -27.9165 -10.8882 -7.1250 0.0000 -0.0000 -4.7359 0.2648 4.7301 -0.0000 0.0000 0.0000 79.6076 -13.0671 13.5783 -8.2804 14.0064 -1.0189 0.0000 0.0000 4.2932 -29.6883 -19.9422 11.0039 7.1250 -0.0000 -0.0000 -1.3314 -52.6429 0.2505
8.6725 15.9810 -29.1793 -2.3312 5.7154 3.9863 0.0000 0.0000 0.0000 -13.3685 12.5063 3.1723 5.1932 13.5982 41.6510 0.3070 8.9800 10.9207 0.4477 -4.2931 -11.9027 0.0000 0.0000 0.0000 24.2115 9.8855 -28.3440 -3.1567 -10.9445 32.0929 -0.0806 4.4754 -5.5457 -0.2619 3.2924 -9.0938 -1.5377 -4.7400 -5.2281 4.4192 -6.3310 -1.4407 4.9595 -3.1869 2.1026 -11.8457 -2.0834 -24.9018 11.9914 -1.9535 25.5843 6.3997 -0.3910 12.9320 0.0000 -0.0000 0.0000 -84.0973 -14.3694 45.5121 29.3580 -40.3367 -10.9917 -0.0000 0.0000 -13.7509 21.9015 -27.8137 -10.6244 -7.1250 0.0000 -0.0000 -4.9793 0.4565 4.9583 0.0000 -0.0000 0.0000 80.2060 -12.4007 13.7574 -8.2823 14.0095 -1.0194 0.0000 0.0000 3.2696 -29.6125 -21.0517 11.5391 7.1250 -0.0000 -0.0000 -1.0379 -53.8569 0.2260
8.6622 16.0204 -28.9734 -3.0357 6.0146 3.8441 0.0000 0.0000 0.0000 -12.6148 11.6611 1.1172 6.1275 14.5508 45.4913 0.2171 10.0670 10.2115 0.3576 -3.8417 -10.6317 0.0000 0.0000 0.0000 25.3647 8.9386 -27.2519 -3.0328 -10.7479 31.4344 -0.0836 5.0496 -5.8248 -0.2632 3.3003 -9.1160 -0.6766 -4.4977 -5.8816 4.3156 -6.0786 -0.8559 4.3154 -3.0665 2.9461 -11.9579 -2.5461 -25.3351 12.2469 -2.5684 25.0912 6.3970 -0.6222 12.9229 0.0000 0.0000 0.0000 -84.0969 -14.5667 46.5513 28.3642 -39.4493 -10.3543 -0.0000 0.0000 -13.0174 21.8072 -27.6071 -10.5043 -7.1250 0.0000 -0.0000 -5.0096 0.6881 4.9682 0.0000 0.0000 0.0000 81.0074 -11.2142 13.1216 -8.2348 13.9328 -1.0079 0.0000 0.0000 2.6334 -32.1020 -19.2352 11.6774 7.1250 -0.0000 -0.0000 -3.9692 -52.3240 0.7165
8.6519 16.0575 -28.7695 -3.8399 6.2571 3.7807 0.0000 0.0000 0.0000 -11.7966 10.8093 -1.0520 7.0677 15.3887 49.1300 -0.0207 11.0650 7.4430 0.9724 -6.2779 -17.5929 0.0000 0.0000 0.0000 26.5793 8.1796 -26.1617 -2.8873 -10.5103 30.6456 -0.0893 5.4019 -6.0928 -0.3130 3.5967 -9.9447 0.1536 -4.2976 -5.7914 4.4691 -5.8615 -0.9200 4.0439 -2.9468 2.7440 -9.9264 -2.8475 -22.9083 9.4804 -3.0551 22.4091 4.6863 -1.0331 11.3894 0.0000 -0.0000 0.0000 -84.5348 -13.6828 47.3405 27.3667 -38.5266 -9.7267 -0.0000 0.0000 -12.0969 21.6141 -27.9461 -10.5190 -7.1250 0.0000 -0.0000 -5.1655 0.3759 5.1526 0.0000 -0.0000 0.0000 81.1672 -11.1714 13.6548 -8.4963 14.3541 -1.0718 0.0000 0.0000 1.7714 -33.2910 -18.4512 11.7405 7.1250 -0.0000 -0.0000 -5.3000 -51.6635 0.8718
